<?xml version="1.0" encoding="utf-8"?>
<!-- Generator: Adobe Illustrator 27.0.1, SVG Export Plug-In . SVG Version: 6.00 Build 0)  -->
<svg version="1.1" id="Capa_1" xmlns="http://www.w3.org/2000/svg" xmlns:xlink="http://www.w3.org/1999/xlink" x="0px" y="0px"
	 viewBox="0 0 48 48" style="enable-background:new 0 0 48 48;" xml:space="preserve">
<style type="text/css">
	.st0{fill:#FFFFFF;}
	.st1{fill:#232552;stroke:#FFFFFF;}
</style>
<path class="st0" d="M5,0h38c2.8,0,5,2.2,5,5v38c0,2.8-2.2,5-5,5H5c-2.8,0-5-2.2-5-5V5C0,2.2,2.2,0,5,0z"/>
<path class="st1" d="M15,40.1L15,40.1c-1.9-1.5-3.3-3.6-4.1-6.2l-0.2-0.5l0.5-0.1l6.7-1.6l0.5-0.1l0.1,0.5c0.1,0.8,0.5,1.5,1.3,2.1
	c0.7,0.6,1.5,0.9,2.3,0.9c0.5,0,1.1-0.1,1.8-0.5l0,0l0,0c0.6-0.3,1.1-0.8,1.3-1.4l0,0c0.2-0.4,0.3-0.9,0.3-1.6c0-0.7,0-1.5,0-2.4
	v-24V4.7h0.5H33h0.5v0.5v24c0,1.2,0,2.2,0,3c0,0,0,0,0,0l-0.5,0c0,0.8-0.1,1.6-0.2,2.4L15,40.1z M15,40.1c2,1.5,4.5,2.3,7.4,2.3
	c2.1,0,3.9-0.4,5.6-1.3c1.7-0.8,3.1-2.2,4.2-4c0.5-0.8,0.8-1.7,1-2.4L15,40.1z"/>
</svg>
